<?xml version="1.0" encoding="utf-8"?>
<!-- Generator: Adobe Illustrator 24.3.0, SVG Export Plug-In . SVG Version: 6.00 Build 0)  -->
<svg version="1.1" id="Warstwa_1" xmlns="http://www.w3.org/2000/svg" xmlns:xlink="http://www.w3.org/1999/xlink" x="0px" y="0px"
	 viewBox="0 0 150 150" style="enable-background:new 0 0 150 150;" xml:space="preserve">
<style type="text/css">
	.st0{fill:#1675F2;stroke:#163BF2;stroke-width:5;stroke-miterlimit:10;}
	.st1{fill:#F2A616;stroke:#F28D16;stroke-width:5;stroke-miterlimit:10;}
	.st2{fill:#FF5E00;stroke:#FF2400;stroke-width:5;stroke-miterlimit:10;}
</style>
<g>
	<path class="st0" d="M28.92,113.37C19.93,102.59,15,89.02,15,74.89c0-15.73,6.06-30.61,17.05-41.91
		C42.21,22.55,55.6,16.21,69.97,14.99l-0.3,57.63L28.92,113.37z"/>
	<path class="st1" d="M75.12,135.01c-14.13,0-27.7-4.93-38.48-13.92l40.74-40.74H135c-1.29,14.3-7.66,27.62-18.07,37.7
		C105.64,128.99,90.79,135.01,75.12,135.01z"/>
	<path class="st2" d="M80.59,69.42V15.01c13.93,1.27,27,7.4,37.01,17.4c10.01,10.01,16.13,23.07,17.4,37.01H80.59z"/>
</g>
</svg>
